<?xml version="1.0" encoding="UTF-8" standalone="no"?>
<!-- Generator: Adobe Illustrator 23.0.1, SVG Export Plug-In . SVG Version: 6.00 Build 0)  -->

<svg
   xmlns:dc="http://purl.org/dc/elements/1.1/"
   xmlns:cc="http://creativecommons.org/ns#"
   xmlns:rdf="http://www.w3.org/1999/02/22-rdf-syntax-ns#"
   xmlns:svg="http://www.w3.org/2000/svg"
   xmlns="http://www.w3.org/2000/svg"
   xmlns:sodipodi="http://sodipodi.sourceforge.net/DTD/sodipodi-0.dtd"
   xmlns:inkscape="http://www.inkscape.org/namespaces/inkscape"
   version="1.1"
   id="Layer_1"
   x="0px"
   y="0px"
   viewBox="0 0 225 224.7"
   style="enable-background:new 0 0 225 224.7;"
   xml:space="preserve"
   sodipodi:docname="LPI-TrainingPartner_SILVER.svg"
   inkscape:version="0.92.4 (5da689c313, 2019-01-14)"><metadata
   id="metadata4009"><rdf:RDF><cc:Work
       rdf:about=""><dc:format>image/svg+xml</dc:format><dc:type
         rdf:resource="http://purl.org/dc/dcmitype/StillImage" /></cc:Work></rdf:RDF></metadata><defs
   id="defs4007" /><sodipodi:namedview
   pagecolor="#ffffff"
   bordercolor="#666666"
   borderopacity="1"
   objecttolerance="10"
   gridtolerance="10"
   guidetolerance="10"
   inkscape:pageopacity="0"
   inkscape:pageshadow="2"
   inkscape:window-width="1366"
   inkscape:window-height="714"
   id="namedview4005"
   showgrid="false"
   inkscape:zoom="2.2919448"
   inkscape:cx="112.5"
   inkscape:cy="112.35"
   inkscape:window-x="0"
   inkscape:window-y="27"
   inkscape:window-maximized="1"
   inkscape:current-layer="Layer_1" />
<style
   type="text/css"
   id="style3889">
	.st0{fill:#2A2C2B;}
	.st1{fill:#292C2B;stroke:#292C2B;stroke-width:0.5;stroke-miterlimit:10;}
	.st2{fill:#FFC316;}
	.st3{fill:#292C2B;}
	.st4{fill:#292C2B;stroke:#292C2B;stroke-miterlimit:10;}
</style>
<g
   id="g3907"
   style="fill:#ffffff">
	<rect
   x="146.2"
   y="195.4"
   class="st0"
   width="48"
   height="1.4"
   id="rect3891"
   style="fill:#ffffff" />
	<rect
   x="31.1"
   y="196.1"
   class="st0"
   width="48"
   height="1.4"
   id="rect3893"
   style="fill:#ffffff" />
	<path
   class="st1"
   d="M94.3,192.6c-1.3-1-2.5-1.2-3.5-1.2c-1.4,0-2.3,0.6-2.3,1.4c0,2.3,6.4,2.2,6.4,6c0,1.8-1.7,3.2-4.1,3.2   c-1.6,0-2.9-0.3-4.1-1.1l0-2.1c1.1,1.1,2.4,1.7,3.9,1.7c1.6,0,2.4-0.8,2.4-1.5c0-2.4-6.4-2.7-6.4-5.9c0-1.9,1.8-3.1,4.5-3.1   c1.1,0,2.2,0.3,3.3,0.8L94.3,192.6z"
   id="path3895"
   style="fill:#ffffff" />
	<path
   class="st1"
   d="M99.7,201.7l-1.7,0l0-11.8l1.7,0L99.7,201.7z"
   id="path3897"
   style="fill:#ffffff" />
	<path
   class="st1"
   d="M104.9,200.2l5.4,0v1.5l-7.2,0l0-11.8l1.7,0L104.9,200.2z"
   id="path3899"
   style="fill:#ffffff" />
	<path
   class="st1"
   d="M115.2,201.8l-0.4,0l-5.2-11.9l1.7,0l3.6,8.3l3.6-8.3l1.7,0L115.2,201.8z"
   id="path3901"
   style="fill:#ffffff" />
	<path
   class="st1"
   d="M129.4,191.5l-5.1,0l0,3.6l4.9,0v1.5l-4.9,0l0,3.7l5.3,0v1.5l-7,0l0-11.8l6.8,0L129.4,191.5z"
   id="path3903"
   style="fill:#ffffff" />
	<path
   class="st1"
   d="M135.3,189.9c2.4,0,4,1.3,4,3.3c0,1.4-0.7,2.4-2,2.9c1.1,0.7,1.8,1.8,2.7,3.3c0.5,0.8,0.8,1.2,1.6,2.3l-2.1,0   l-1.6-2.4c-1.6-2.4-2.3-2.7-3.2-2.7l-0.7,0l0,5.1l-1.7,0l0-11.8L135.3,189.9z M134,195.1l1.1,0c1.9,0,2.4-0.9,2.4-1.9   c0-1.1-0.7-1.8-2.4-1.8l-1.1,0L134,195.1z"
   id="path3905"
   style="fill:#ffffff" />
</g>
<g
   id="g3967">
	<path
   class="st2"
   d="M72.6,43.3c0,2-1.6,3.6-3.6,3.6s-3.6-1.6-3.6-3.6s1.6-3.6,3.5-3.6C71,39.8,72.5,41.3,72.6,43.3"
   id="path3909" />
	<polygon
   class="st2"
   points="63.3,36.2 56.1,36.2 47.6,68.2 71.9,68.2 73.8,61.1 56.7,61.1  "
   id="polygon3911" />
	<path
   class="st2"
   d="M59.7,25.5c-15.8,0-28.6,12.8-28.6,28.5s12.8,28.6,28.6,28.6S88.3,69.8,88.3,54l0,0   C88.3,38.3,75.5,25.5,59.7,25.5z M59.7,75.4c-11.8,0-21.4-9.6-21.4-21.4s9.6-21.4,21.4-21.4S81.1,42.2,81.1,54S71.5,75.4,59.7,75.4   z"
   id="path3913" />
	<path
   class="st3"
   d="M105.1,48.1c0.9,0,1.8,0.3,2.5,0.9c0.7,0.6,1,1.5,1,2.3c0,0.9-0.3,1.7-1,2.3s-1.7,0.9-2.6,0.9h-2.1v4.7h-2.2   V48.1H105.1z M104.6,52.8c0.5,0,1-0.1,1.3-0.4c0.3-0.3,0.5-0.7,0.5-1.2c0-1-0.7-1.5-2-1.5h-1.5v3.1L104.6,52.8z"
   id="path3915"
   style="fill:#f9f9f9" />
	<path
   class="st3"
   d="M115.2,51.6c0.3,0,0.5,0.1,0.8,0.2c0.3,0.2,0.6,0.4,0.9,0.6l-0.7,1.7c-0.4-0.3-0.9-0.6-1.4-0.6   c-0.3,0-0.6,0.1-0.9,0.3s-0.5,0.5-0.7,0.9c-0.2,0.3-0.3,0.7-0.3,1.1v3.4h-2v-7.5h2v1.9l0,0c0.3-0.6,0.6-1.1,1.1-1.6   C114.4,51.8,114.8,51.6,115.2,51.6z"
   id="path3917"
   style="fill:#f9f9f9" />
	<path
   class="st3"
   d="M122,51.6c0.7,0,1.5,0.2,2.1,0.5s1.1,0.8,1.5,1.4c0.4,0.6,0.5,1.3,0.5,2s-0.2,1.4-0.5,2s-0.9,1.1-1.5,1.4   c-0.7,0.3-1.4,0.5-2.1,0.5c-0.7,0-1.5-0.2-2.1-0.5s-1.1-0.8-1.5-1.4c-0.3-0.6-0.5-1.3-0.5-2s0.2-1.4,0.5-2c0.4-0.6,0.9-1.1,1.5-1.4   C120.6,51.8,121.3,51.6,122,51.6z M120,55.4c0,0.6,0.2,1.3,0.5,1.8c0.4,0.4,0.9,0.7,1.5,0.7s1.1-0.2,1.5-0.6   c0.4-0.5,0.6-1.2,0.6-1.8c0-0.6-0.2-1.3-0.6-1.8c-0.4-0.4-0.9-0.6-1.5-0.6s-1.1,0.2-1.5,0.7C120.1,54.2,119.9,54.8,120,55.4z"
   id="path3919"
   style="fill:#f9f9f9" />
	<path
   class="st3"
   d="M131.7,48c0.2,0,0.5,0,0.7,0.1c0.2,0,0.4,0.1,0.6,0.2v1.6c-0.3-0.1-0.6-0.1-0.9-0.1c-0.4,0-0.8,0.1-1.1,0.4   c-0.3,0.4-0.4,0.8-0.3,1.2v0.5h1.3v1.5h-1.3v6h-2v-6h-1.1v-1.5h1.1v-0.6c0-0.9,0.2-1.7,0.8-2.4C130,48.3,130.8,47.8,131.7,48z"
   id="path3921"
   style="fill:#f9f9f9" />
	<path
   class="st3"
   d="M137.1,51.6c1,0,1.9,0.3,2.6,1.1c0.7,0.8,1,1.9,1,2.9v0.3h-5.3c0,0.6,0.3,1.1,0.7,1.5c0.5,0.4,1.1,0.6,1.7,0.5   c0.5,0,0.9-0.1,1.4-0.2c0.5-0.2,0.9-0.4,1.3-0.7v1.6c-0.9,0.6-2.1,1-3.2,0.9c-1.1,0-2.1-0.3-2.9-1.1c-0.8-0.7-1.2-1.8-1.1-2.8   c0-1,0.3-2,1-2.8C135.1,52,136.1,51.6,137.1,51.6z M138.9,54.7c0-0.5-0.2-0.9-0.5-1.3c-0.3-0.3-0.7-0.5-1.1-0.5   c-0.4,0-0.9,0.1-1.2,0.4c-0.3,0.4-0.5,0.8-0.6,1.3L138.9,54.7z"
   id="path3923"
   style="fill:#f9f9f9" />
	<path
   class="st3"
   d="M145.5,51.6c0.4,0,0.8,0,1.2,0.1s0.8,0.3,1.2,0.4v1.6c-0.4-0.2-0.8-0.4-1.2-0.6c-0.4-0.1-0.8-0.2-1.1-0.2   c-0.2,0-0.5,0-0.7,0.2c-0.2,0.1-0.2,0.3-0.2,0.5c0,0.1,0.1,0.3,0.2,0.3c0.3,0.2,0.7,0.4,1.1,0.6c0.7,0.3,1.3,0.7,1.8,1.2   c0.3,0.4,0.5,0.8,0.5,1.3c0,0.7-0.2,1.3-0.8,1.7c-0.6,0.4-1.3,0.7-2,0.6c-0.5,0-1-0.1-1.5-0.2c-0.4-0.1-0.8-0.2-1.1-0.4v-1.6   c0.7,0.5,1.6,0.7,2.4,0.8c0.3,0,0.6,0,0.8-0.2c0.2-0.1,0.3-0.3,0.3-0.5c0-0.1,0-0.2-0.1-0.3c-0.1-0.1-0.2-0.2-0.3-0.3   c-0.1-0.1-0.6-0.3-1.4-0.7c-0.5-0.2-1-0.5-1.3-0.9c-0.3-0.3-0.4-0.8-0.4-1.2c0-0.6,0.3-1.2,0.8-1.6   C144.1,51.8,144.8,51.6,145.5,51.6z"
   id="path3925"
   style="fill:#f9f9f9" />
	<path
   class="st3"
   d="M152.9,51.6c0.4,0,0.8,0,1.2,0.1s0.8,0.3,1.2,0.4v1.6c-0.4-0.2-0.8-0.4-1.2-0.6c-0.4-0.1-0.8-0.2-1.1-0.2   c-0.2,0-0.5,0-0.7,0.2c-0.2,0.1-0.2,0.3-0.2,0.5c0,0.1,0.1,0.3,0.2,0.3c0.3,0.2,0.7,0.4,1.1,0.6c0.7,0.3,1.3,0.7,1.8,1.2   c0.3,0.4,0.5,0.8,0.5,1.3c0,0.7-0.2,1.3-0.8,1.7c-0.6,0.4-1.3,0.7-2,0.6c-0.5,0-1-0.1-1.5-0.2c-0.4-0.1-0.8-0.2-1.1-0.4v-1.6   c0.7,0.5,1.6,0.7,2.4,0.8c0.3,0,0.6,0,0.8-0.2c0.2-0.1,0.3-0.3,0.3-0.5c0-0.1,0-0.2-0.1-0.3c-0.1-0.1-0.2-0.2-0.3-0.3   c-0.1-0.1-0.6-0.3-1.4-0.7c-0.5-0.2-1-0.5-1.3-0.9c-0.3-0.3-0.4-0.8-0.4-1.2c0-0.6,0.3-1.2,0.8-1.6   C151.5,51.8,152.2,51.6,152.9,51.6z"
   id="path3927"
   style="fill:#f9f9f9" />
	<path
   class="st3"
   d="M159,48.4c0.6,0,1.1,0.5,1.1,1.1c0,0.3-0.1,0.6-0.3,0.8c-0.4,0.4-1.1,0.5-1.5,0.1c0,0,0,0-0.1-0.1   c-0.2-0.2-0.3-0.5-0.3-0.8s0.1-0.6,0.3-0.8C158.4,48.5,158.7,48.4,159,48.4z M160,51.8v7.5h-2v-7.5L160,51.8z"
   id="path3929"
   style="fill:#f9f9f9" />
	<path
   class="st3"
   d="M166.5,51.6c0.7,0,1.5,0.2,2.1,0.5s1.1,0.8,1.5,1.4c0.4,0.6,0.5,1.3,0.5,2s-0.2,1.4-0.5,2s-0.9,1.1-1.5,1.4   c-0.7,0.3-1.4,0.5-2.1,0.5c-0.7,0-1.5-0.2-2.1-0.5s-1.1-0.8-1.5-1.4c-0.3-0.6-0.5-1.3-0.5-2s0.2-1.4,0.5-2c0.4-0.6,0.9-1.1,1.5-1.4   C165.1,51.8,165.8,51.6,166.5,51.6z M164.5,55.4c0,0.6,0.2,1.3,0.5,1.8c0.4,0.4,0.9,0.7,1.5,0.7s1.1-0.2,1.5-0.6   c0.4-0.5,0.6-1.2,0.6-1.8c0-0.6-0.2-1.3-0.6-1.8c-0.4-0.4-0.9-0.6-1.5-0.6s-1.1,0.2-1.5,0.7C164.7,54.2,164.5,54.8,164.5,55.4z"
   id="path3931"
   style="fill:#f9f9f9" />
	<path
   class="st3"
   d="M177.4,51.6c0.7,0,1.4,0.3,1.9,0.8c0.5,0.6,0.8,1.3,0.7,2.1v4.8h-2v-4.6c0-0.4-0.1-0.8-0.3-1.2   c-0.2-0.3-0.6-0.4-0.9-0.4c-0.3,0-0.6,0.1-0.9,0.3c-0.3,0.2-0.6,0.6-0.9,0.9v5h-2v-7.5h2v1c0.3-0.4,0.7-0.7,1.1-0.9   C176.5,51.8,176.9,51.6,177.4,51.6z"
   id="path3933"
   style="fill:#f9f9f9" />
	<path
   class="st3"
   d="M185.4,51.6c0.8-0.1,1.6,0.2,2.2,0.6c0.5,0.4,0.8,1.1,0.8,1.7v3.7c0,0.3,0.1,0.4,0.3,0.4   c0.1,0,0.3-0.1,0.4-0.1c0.2-0.1,0.3-0.2,0.4-0.3v1.1c-0.6,0.4-1.2,0.6-1.9,0.6c-0.3,0-0.6,0-0.8-0.2c-0.2-0.1-0.4-0.4-0.4-0.6   c-0.7,0.5-1.4,0.8-2.3,0.8c-0.5,0-1-0.2-1.4-0.5s-0.6-0.8-0.6-1.3c0-0.6,0.2-1.1,0.6-1.5c0.6-0.5,1.3-0.8,2-1l1.6-0.5v-0.3   c0-0.7-0.4-1.1-1.3-1.1c-0.5,0-0.9,0.1-1.4,0.3s-0.9,0.5-1.2,0.9v-1.8C183.3,52,184.4,51.6,185.4,51.6z M184.2,57.2   c0,0.2,0.1,0.5,0.3,0.7s0.4,0.3,0.6,0.2c0.5,0,1-0.2,1.3-0.6v-2c-0.4,0.1-0.9,0.3-1.3,0.5c-0.3,0.1-0.5,0.3-0.7,0.5   C184.3,56.8,184.2,57,184.2,57.2L184.2,57.2z"
   id="path3935"
   style="fill:#f9f9f9" />
	<path
   class="st3"
   d="M193.5,48.1v11.2h-2V48.1H193.5z"
   id="path3937"
   style="fill:#f9f9f9" />
	<path
   class="st3"
   d="M103,65.5v11.2h-2.2V65.5H103z"
   id="path3939"
   style="fill:#f9f9f9" />
	<path
   class="st3"
   d="M110.4,69.1c0.7,0,1.4,0.3,1.9,0.8c0.5,0.6,0.8,1.3,0.7,2.1v4.8h-2v-4.6c0-0.4-0.1-0.8-0.3-1.2   c-0.2-0.3-0.6-0.4-0.9-0.4s-0.6,0.1-0.9,0.3c-0.3,0.2-0.6,0.6-0.9,0.9v5h-2v-7.5h2v1c0.3-0.4,0.7-0.7,1.1-0.9   C109.6,69.1,110,69.1,110.4,69.1z"
   id="path3941"
   style="fill:#f9f9f9" />
	<path
   class="st3"
   d="M118.2,69.1c0.4,0,0.8,0,1.2,0.1s0.8,0.3,1.2,0.4v1.6c-0.4-0.2-0.8-0.4-1.2-0.6c-0.4-0.1-0.8-0.2-1.1-0.2   c-0.2,0-0.5,0-0.7,0.2c-0.2,0.1-0.2,0.3-0.2,0.5c0,0.1,0.1,0.3,0.2,0.3c0.3,0.2,0.7,0.4,1.1,0.6c0.7,0.3,1.3,0.7,1.8,1.2   c0.3,0.4,0.5,0.8,0.5,1.3c0,0.7-0.2,1.3-0.8,1.7c-0.6,0.4-1.3,0.7-2,0.6c-0.5,0-1-0.1-1.5-0.2c-0.4-0.1-0.8-0.2-1.1-0.4v-1.6   c0.7,0.5,1.6,0.7,2.4,0.8c0.3,0,0.6,0,0.8-0.2c0.2-0.1,0.3-0.3,0.3-0.5c0-0.1,0-0.2-0.1-0.3c-0.1-0.1-0.2-0.2-0.3-0.3   c-0.1-0.1-0.6-0.3-1.4-0.7c-0.5-0.2-1-0.5-1.3-0.9c-0.3-0.3-0.4-0.8-0.4-1.2c0-0.6,0.3-1.2,0.8-1.6C116.8,69.2,117.5,69,118.2,69.1   z"
   id="path3943"
   style="fill:#f9f9f9" />
	<path
   class="st3"
   d="M125.3,67.2h0.2v2h2.6v1.5h-2.6v3.4c0,0.3,0.1,0.6,0.3,0.8c0.2,0.2,0.5,0.3,0.8,0.3c0.6,0,1.1-0.2,1.6-0.5v1.6   c-0.6,0.3-1.3,0.5-2,0.5s-1.4-0.2-2-0.7c-0.5-0.5-0.7-1.2-0.7-1.9v-3.6h-1.2v-0.3L125.3,67.2z"
   id="path3945"
   style="fill:#f9f9f9" />
	<path
   class="st3"
   d="M131.1,65.7c0.6,0,1.1,0.5,1.1,1.1c0,0.3-0.1,0.6-0.3,0.8c-0.4,0.4-1.1,0.5-1.5,0.1c0,0,0,0-0.1-0.1   c-0.2-0.2-0.3-0.5-0.3-0.8s0.1-0.6,0.3-0.8C130.6,65.9,130.9,65.7,131.1,65.7z M132.1,69.2v7.5h-2v-7.5H132.1z"
   id="path3947"
   style="fill:#f9f9f9" />
	<path
   class="st3"
   d="M137,67.2h0.2v2h2.6v1.5h-2.6v3.4c0,0.3,0.1,0.6,0.3,0.8c0.2,0.2,0.5,0.3,0.8,0.3c0.6,0,1.1-0.2,1.6-0.5v1.6   c-0.6,0.3-1.3,0.5-2,0.5s-1.4-0.2-2-0.7c-0.5-0.5-0.7-1.2-0.7-1.9v-3.6H134v-0.3L137,67.2z"
   id="path3949"
   style="fill:#f9f9f9" />
	<path
   class="st3"
   d="M143.7,69.2v4.6c0,0.4,0.1,0.8,0.4,1.1c0.3,0.3,0.6,0.4,1,0.4c0.3,0,0.7-0.1,1-0.3c0.3-0.2,0.6-0.5,0.7-0.9v-5   h2v7.5h-2v-1c-0.6,0.7-1.4,1.1-2.3,1.2c-0.7,0-1.4-0.3-1.9-0.8c-0.5-0.6-0.8-1.3-0.7-2v-4.8L143.7,69.2L143.7,69.2z"
   id="path3951"
   style="fill:#f9f9f9" />
	<path
   class="st3"
   d="M153.6,67.2h0.2v2h2.6v1.5h-2.6v3.4c0,0.3,0.1,0.6,0.3,0.8c0.2,0.2,0.5,0.3,0.8,0.3c0.6,0,1.1-0.2,1.6-0.5v1.6   c-0.6,0.3-1.3,0.5-2,0.5s-1.4-0.2-2-0.7c-0.5-0.5-0.7-1.2-0.7-1.9v-3.6h-1.2v-0.3L153.6,67.2z"
   id="path3953"
   style="fill:#f9f9f9" />
	<path
   class="st3"
   d="M161.7,69.1c1,0,1.9,0.3,2.6,1.1c0.7,0.8,1,1.9,1,2.9v0.3H160c0,0.6,0.3,1.1,0.7,1.5c0.5,0.4,1.1,0.6,1.7,0.5   c0.5,0,0.9-0.1,1.4-0.2c0.5-0.2,0.9-0.4,1.3-0.7V76c-0.9,0.6-2.1,1-3.2,0.9c-1.1,0-2.1-0.3-2.9-1.1c-0.8-0.7-1.2-1.8-1.1-2.8   c0-1,0.3-2,1-2.8C159.7,69.4,160.7,69,161.7,69.1z M163.4,72.1c0-0.5-0.2-0.9-0.5-1.3c-0.3-0.3-0.7-0.5-1.1-0.5   c-0.4,0-0.9,0.1-1.2,0.4c-0.3,0.4-0.5,0.8-0.6,1.3L163.4,72.1z"
   id="path3955"
   style="fill:#f9f9f9" />
	<path
   class="st3"
   d="M103,30.6v9.5h5.4v1.7h-7.6V30.6H103z"
   id="path3957"
   style="fill:#f9f9f9" />
	<path
   class="st3"
   d="M111.5,30.8c0.6,0,1.1,0.5,1.1,1.1c0,0.3-0.1,0.6-0.3,0.8c-0.4,0.4-1.1,0.5-1.5,0.1c0,0,0,0-0.1-0.1   c-0.2-0.2-0.3-0.5-0.3-0.8c0-0.3,0.1-0.6,0.3-0.8S111.2,30.8,111.5,30.8z M112.5,34.3v7.5h-2v-7.5H112.5z"
   id="path3959"
   style="fill:#f9f9f9" />
	<path
   class="st3"
   d="M119.7,34.1c0.7,0,1.4,0.3,1.9,0.8c0.5,0.6,0.8,1.3,0.7,2.1v4.8h-2v-4.6c0-0.4-0.1-0.8-0.3-1.2   c-0.2-0.3-0.6-0.4-0.9-0.4c-0.3,0-0.6,0.1-0.9,0.3c-0.3,0.2-0.6,0.6-0.9,0.9v5h-2v-7.5h2v1c0.3-0.4,0.7-0.7,1.1-0.9   C118.8,34.1,119.2,34.1,119.7,34.1z"
   id="path3961"
   style="fill:#f9f9f9" />
	<path
   class="st3"
   d="M126.9,34.3v4.6c0,0.4,0.1,0.8,0.4,1.1c0.3,0.3,0.6,0.4,1,0.4c0.3,0,0.7-0.1,1-0.3s0.6-0.5,0.7-0.9v-5h2v7.4   h-2v-1c-0.6,0.7-1.4,1.1-2.3,1.2c-0.7,0-1.4-0.3-1.9-0.8c-0.5-0.6-0.8-1.3-0.7-2v-4.8L126.9,34.3L126.9,34.3z"
   id="path3963"
   style="fill:#f9f9f9" />
	<path
   class="st3"
   d="M136.1,34.3l1.9,2.3l1.8-2.3h2.4l-3,3.7l3.2,3.8H140l-2-2.5l-1.9,2.5h-2.3l3.1-3.8l-3.1-3.7H136.1z"
   id="path3965"
   style="fill:#f9f9f9" />
</g>
<rect
   x="44"
   y="98.2"
   class="st3"
   width="137"
   height="1.4"
   id="rect3969"
   style="fill:#f9f9f9" />
<path
   id="Rahmen"
   class="st3"
   d="M225,224.7H0V0h225V224.7z M4.3,220.6h216.4V4H4.3V220.6z"
   style="fill:#f9f9f9" />
<g
   id="g4002"
   style="fill:#ffffff">
	<path
   class="st4"
   d="M31.3,124.2h20.2v3.1h-8.4v21.2h-3.5v-21.2h-8.3V124.2z"
   id="path3972"
   style="fill:#ffffff" />
	<path
   class="st4"
   d="M54.9,148.5v-24.2H61c2.4,0,4.4,0.6,5.8,1.8c1.4,1.2,2.2,2.9,2.2,4.9c0,1.4-0.4,2.6-1.1,3.7   c-0.7,1-1.7,1.8-3,2.3c0.8,0.5,1.5,1.2,2.3,2.1c0.7,0.9,1.8,2.4,3.1,4.6c0.8,1.4,1.5,2.4,2,3.1l1.3,1.7h-4.1l-1.1-1.6   c0-0.1-0.1-0.2-0.2-0.3l-0.7-1l-1.1-1.8l-1.2-1.9c-0.7-1-1.4-1.8-2-2.4c-0.6-0.6-1.1-1-1.6-1.3s-1.3-0.4-2.4-0.4h-0.9v10.5H54.9z    M59.4,127.2h-1v7.6h1.3c1.8,0,3-0.1,3.6-0.5c0.7-0.3,1.2-0.8,1.5-1.4c0.4-0.6,0.5-1.3,0.5-2.1c0-0.8-0.2-1.5-0.6-2.1   c-0.4-0.6-1-1.1-1.7-1.3C62.3,127.3,61.1,127.2,59.4,127.2z"
   id="path3974"
   style="fill:#ffffff" />
	<path
   class="st4"
   d="M84,124.1h2.4l10.9,24.4h-3.5l-3.2-7.2H80.2l-3,7.2h-3.6L84,124.1z M89.1,138.2l-3.9-8.8l-3.6,8.8H89.1z"
   id="path3976"
   style="fill:#ffffff" />
	<path
   class="st4"
   d="M100,124.3h3.5v24.2H100V124.3z"
   id="path3978"
   style="fill:#ffffff" />
	<path
   class="st4"
   d="M128,124.3h3.3v24.2h-3l-16.2-18.6v18.6h-3.3v-24.2h2.8l16.3,18.8V124.3z"
   id="path3980"
   style="fill:#ffffff" />
	<path
   class="st4"
   d="M136.6,124.3h3.5v24.2h-3.5V124.3z"
   id="path3982"
   style="fill:#ffffff" />
	<path
   class="st4"
   d="M164.6,124.3h3.3v24.2h-3l-16.2-18.6v18.6h-3.3v-24.2h2.8l16.3,18.8V124.3z"
   id="path3984"
   style="fill:#ffffff" />
	<path
   class="st4"
   d="M186.2,136.6h8.1v10.3c-3,1.3-5.9,1.9-8.9,1.9c-4,0-7.2-1.2-9.6-3.5c-2.4-2.3-3.6-5.2-3.6-8.7   c0-3.6,1.2-6.6,3.7-9s5.6-3.6,9.3-3.6c1.4,0,2.7,0.1,3.9,0.4c1.2,0.3,2.8,0.8,4.6,1.6v3.5c-2.9-1.7-5.8-2.5-8.6-2.5   c-2.6,0-4.9,0.9-6.7,2.7s-2.7,4-2.7,6.6c0,2.8,0.9,5,2.7,6.7c1.8,1.7,4.1,2.6,7,2.6c1.4,0,3-0.3,5-1l0.3-0.1v-5h-4.7V136.6z"
   id="path3986"
   style="fill:#ffffff" />
	<path
   class="st4"
   d="M32.8,181.5v-24.3h8.7c2.6,0,4.7,0.6,6.2,1.9c1.6,1.2,2.3,2.9,2.3,5c0,1.4-0.4,2.7-1.2,3.7   c-0.8,1.1-1.9,1.9-3.3,2.4c-1.4,0.5-3.4,0.7-6,0.7h-2.9v10.5H32.8z M40.8,160.3h-4.1v7.6H41c1.6,0,2.8-0.3,3.7-1   c0.9-0.7,1.3-1.6,1.3-2.9C46,161.6,44.2,160.3,40.8,160.3z"
   id="path3988"
   style="fill:#ffffff" />
	<path
   class="st4"
   d="M59,157.1h2.8L74,181.5h-4l-3.6-7.2H54.7l-3.4,7.2h-4L59,157.1z M64.7,171.2l-4.4-8.8l-4.1,8.8H64.7z"
   id="path3990"
   style="fill:#ffffff" />
	<path
   class="st4"
   d="M77.1,181.5v-24.2H84c2.8,0,5,0.6,6.6,1.8c1.6,1.2,2.4,2.9,2.4,4.9c0,1.4-0.4,2.6-1.2,3.7   c-0.8,1-1.9,1.8-3.4,2.3c0.9,0.5,1.7,1.2,2.6,2.1c0.8,0.9,2,2.4,3.5,4.6c1,1.4,1.7,2.4,2.3,3.1l1.4,1.7h-4.7l-1.2-1.6   c0-0.1-0.1-0.2-0.2-0.3l-0.8-1l-1.2-1.8l-1.3-1.9c-0.8-1-1.5-1.8-2.2-2.4c-0.7-0.6-1.3-1-1.8-1.3s-1.5-0.4-2.7-0.4h-1v10.5H77.1z    M82.2,160.2H81v7.6h1.5c2,0,3.3-0.1,4.1-0.5s1.3-0.8,1.7-1.4c0.4-0.6,0.6-1.3,0.6-2.1c0-0.8-0.2-1.5-0.7-2.1   c-0.5-0.6-1.1-1.1-1.9-1.3C85.5,160.3,84.1,160.2,82.2,160.2z"
   id="path3992"
   style="fill:#ffffff" />
	<path
   class="st4"
   d="M95.3,157.2h22.9v3.1h-9.5v21.2h-3.9v-21.2h-9.4V157.2z"
   id="path3994"
   style="fill:#ffffff" />
	<path
   class="st4"
   d="M143.6,157.3h3.7v24.2h-3.4l-18.3-18.6v18.6H122v-24.2h3.2l18.5,18.8V157.3z"
   id="path3996"
   style="fill:#ffffff" />
	<path
   class="st4"
   d="M153.2,157.3h15.5v3.1h-11.6v7.4h11.2v3.1h-11.2v7.5h12v3.1h-15.9V157.3z"
   id="path3998"
   style="fill:#ffffff" />
	<path
   class="st4"
   d="M173.3,181.5v-24.2h6.9c2.8,0,5,0.6,6.6,1.8c1.6,1.2,2.4,2.9,2.4,4.9c0,1.4-0.4,2.6-1.2,3.7   c-0.8,1-1.9,1.8-3.4,2.3c0.9,0.5,1.7,1.2,2.6,2.1c0.8,0.9,2,2.4,3.5,4.6c1,1.4,1.7,2.4,2.3,3.1l1.4,1.7h-4.7l-1.2-1.6   c0-0.1-0.1-0.2-0.2-0.3l-0.8-1l-1.2-1.8l-1.3-1.9c-0.8-1-1.5-1.8-2.2-2.4c-0.7-0.6-1.3-1-1.8-1.3c-0.5-0.3-1.5-0.4-2.7-0.4h-1v10.5   H173.3z M178.4,160.2h-1.2v7.6h1.5c2,0,3.3-0.1,4.1-0.5c0.7-0.3,1.3-0.8,1.7-1.4c0.4-0.6,0.6-1.3,0.6-2.1c0-0.8-0.2-1.5-0.7-2.1   c-0.5-0.6-1.1-1.1-1.9-1.3C181.7,160.3,180.4,160.2,178.4,160.2z"
   id="path4000"
   style="fill:#ffffff" />
</g>
</svg>